<?xml version="1.0" encoding="UTF-8" standalone="no"?>
<!-- Generator: Adobe Illustrator 13.0.0, SVG Export Plug-In  -->

<svg
   xmlns:dc="http://purl.org/dc/elements/1.1/"
   xmlns:cc="http://creativecommons.org/ns#"
   xmlns:rdf="http://www.w3.org/1999/02/22-rdf-syntax-ns#"
   xmlns:svg="http://www.w3.org/2000/svg"
   xmlns="http://www.w3.org/2000/svg"
   xmlns:sodipodi="http://sodipodi.sourceforge.net/DTD/sodipodi-0.dtd"
   xmlns:inkscape="http://www.inkscape.org/namespaces/inkscape"
   version="1.1"
   x="0px"
   y="0px"
   width="545.3078"
   height="574.91187"
   viewBox="-0.531 -0.531 545.3078 574.91187"
   enable-background="new -0.531 -0.531 576 576"
   xml:space="preserve"
   id="svg2"
   inkscape:version="0.47 r22583"
   sodipodi:docname="Irish hospital.svg"><metadata
   id="metadata18"><rdf:RDF><cc:Work
       rdf:about=""><dc:format>image/svg+xml</dc:format><dc:type
         rdf:resource="http://purl.org/dc/dcmitype/StillImage" /><dc:title></dc:title></cc:Work></rdf:RDF></metadata><sodipodi:namedview
   pagecolor="#ffffff"
   bordercolor="#666666"
   borderopacity="1"
   objecttolerance="10"
   gridtolerance="10"
   guidetolerance="10"
   inkscape:pageopacity="0"
   inkscape:pageshadow="2"
   inkscape:window-width="1600"
   inkscape:window-height="838"
   id="namedview16"
   showgrid="false"
   inkscape:zoom="0.97789171"
   inkscape:cx="34.212681"
   inkscape:cy="282.95078"
   inkscape:window-x="-8"
   inkscape:window-y="-8"
   inkscape:window-maximized="1"
   inkscape:current-layer="svg2" />
<defs
   id="defs4"><inkscape:perspective
   sodipodi:type="inkscape:persp3d"
   inkscape:vp_x="0 : 288 : 1"
   inkscape:vp_y="0 : 1000 : 0"
   inkscape:vp_z="576 : 288 : 1"
   inkscape:persp3d-origin="288 : 192 : 1"
   id="perspective20" />
<inkscape:perspective
   id="perspective2928"
   inkscape:persp3d-origin="0.5 : 0.33333333 : 1"
   inkscape:vp_z="1 : 0.5 : 1"
   inkscape:vp_y="0 : 1000 : 0"
   inkscape:vp_x="0 : 0.5 : 1"
   sodipodi:type="inkscape:persp3d" /><inkscape:perspective
   id="perspective3651"
   inkscape:persp3d-origin="0.5 : 0.33333333 : 1"
   inkscape:vp_z="1 : 0.5 : 1"
   inkscape:vp_y="0 : 1000 : 0"
   inkscape:vp_x="0 : 0.5 : 1"
   sodipodi:type="inkscape:persp3d" /></defs>





<path
   style="fill:#ffffff;stroke:#000000;stroke-width:0.97386825;stroke-linecap:round;stroke-linejoin:round"
   d="m 38.837336,573.89393 466.572084,0 c 10.31122,0 20.20133,-4.318 27.49278,-12.007 7.29145,-7.688 11.38767,-18.115 11.38767,-28.988 l 0,-491.946996 c 0,-10.873 -4.09622,-21.3 -11.38767,-28.988 -7.29239,-7.6889999 -17.18251,-12.00799987 -27.49373,-12.00799987 l -466.571134,0 c -10.312164,0 -20.201333,4.31899997 -27.492782,12.00699987 -7.2923964,7.688 -11.38861987,18.116 -11.38861987,28.989 l 0,491.946996 c 0,10.873 4.09622347,21.3 11.38767187,28.988 7.291448,7.688 17.181566,12.007 27.49373,12.007 z"
   id="path6" /><path
   style="fill:#173283;fill-opacity:1;stroke:#183182;stroke-width:14.0456562;stroke-linecap:square;stroke-linejoin:miter;stroke-miterlimit:4;stroke-dashoffset:0;stroke-opacity:1"
   d="m 84.566326,44.014153 380.977174,0 c 21.46905,0 38.75279,17.283745 38.75279,38.752792 l 0,409.610225 c 0,21.46905 -17.28374,38.7528 -38.75279,38.7528 l -380.977174,0 c -21.469047,0 -38.752792,-17.28375 -38.752792,-38.7528 l 0,-409.610225 c 0,-21.469047 17.283745,-38.752792 38.752792,-38.752792 z"
   id="rect3623" /><g
   transform="scale(1.0133289,0.98684643)"
   style="font-size:532.99182129px;font-style:normal;font-variant:normal;font-weight:normal;font-stretch:normal;text-align:start;line-height:100%;writing-mode:lr-tb;text-anchor:start;fill:#ffffff;fill-opacity:1;stroke:none;font-family:Transport Heavy;-inkscape-font-specification:'Transport Heavy,'"
   id="text3669"><path
     d="m 133.36434,94.976471 8.32799,0 3.123,0 3.123,0 32.27099,0 7.287,0 6.246,0 7.28699,0 6.246,0 5.205,0 6.246,0 4.164,0 18.73799,0 11.451,0 4.164,0 4.16399,0 4.164,0 4.164,0 17.697,0 3.12299,0 12.492,0 3.123,0 2.082,1.041 3.123,0 7.287,1.040999 3.12299,1.041 14.574,3.123 c 65.06214,31.23041 92.4751,80.50434 82.23897,147.82195 -23.24933,79.63669 -76.34025,114.33665 -159.27294,104.09996 l -4.164,0 -11.451,0 -5.205,0 -3.123,0 -4.164,0 -3.12299,0 -20.82,0 0,139.49396 -13.53299,0 -4.164,0 -18.738,0 -4.16399,0 -4.164,0 -4.164,0 -17.69699,0 -3.123,0 -12.492,0 0,-3.123 0,-4.164 0,-3.123 0,-4.164 0,-18.73799 0,-8.328 0,-8.328 0,-3.12299 0,-20.82 0,-4.164 0,-5.20499 0,-4.164 0,-5.205 0,-13.533 0,-4.164 0,-17.69699 0,-3.123 0,-12.49199 0,-4.164 0,-5.205 0,-13.533 0,-4.164 0,-17.69699 0,-3.123 0,-12.49199 0,-7.287 0,-8.328 0,-8.328 0,-8.32799 0,-3.123 0,-3.123 0,-32.27099 0,-7.287 0,-6.246 0,-7.28699 0,-6.246 0,-5.205 0,-6.246 0,-4.164 0,-18.73799 0,-11.451 0,-4.16399 0,-4.164 0,-4.164 0,-4.164 0,-17.69699 0,-3.123 0,-12.491999 z m 73.91097,183.215939 4.164,0 4.164,0 4.164,0 11.45099,0 11.451,0 18.73799,0 3.123,0 3.123,0 4.164,0 18.73799,0 4.164,0 c 4.33726,-1.73473 8.15426,-2.77572 11.451,-3.123 28.97422,-17.1762 38.6902,-40.77217 29.14799,-70.78798 -6.41977,-14.92063 -16.48275,-25.33062 -30.18899,-31.22999 l -3.123,0 c -10.75723,-3.12261 -20.47321,-4.16361 -29.14799,-3.12299 l -5.205,0 -4.164,0 -5.20499,0 -13.533,0 -4.164,0 -17.69699,0 -3.123,0 -12.492,0 z"
     style=""
     id="path3674" /></g></svg>