<?xml version="1.0" encoding="UTF-8" standalone="no"?>
<!-- Created with Inkscape (http://www.inkscape.org/) -->

<svg
   xmlns:dc="http://purl.org/dc/elements/1.1/"
   xmlns:cc="http://creativecommons.org/ns#"
   xmlns:rdf="http://www.w3.org/1999/02/22-rdf-syntax-ns#"
   xmlns:svg="http://www.w3.org/2000/svg"
   xmlns="http://www.w3.org/2000/svg"
   xmlns:sodipodi="http://sodipodi.sourceforge.net/DTD/sodipodi-0.dtd"
   xmlns:inkscape="http://www.inkscape.org/namespaces/inkscape"
   width="1010.4"
   height="1010.4002"
   id="svg2"
   sodipodi:version="0.32"
   inkscape:version="0.48.4 r9939"
   version="1.0"
   sodipodi:docname="Ajax.svg"
   inkscape:output_extension="org.inkscape.output.svg.inkscape">
  <defs
     id="defs4">
    <inkscape:perspective
       sodipodi:type="inkscape:persp3d"
       inkscape:vp_x="0 : 300.5 : 1"
       inkscape:vp_y="0 : 1000 : 0"
       inkscape:vp_z="601 : 300.5 : 1"
       inkscape:persp3d-origin="300.5 : 200.33333 : 1"
       id="perspective3380" />
    <inkscape:perspective
       id="perspective3990"
       inkscape:persp3d-origin="375 : 250 : 1"
       inkscape:vp_z="750 : 375 : 1"
       inkscape:vp_y="0 : 1000 : 0"
       inkscape:vp_x="0 : 375 : 1"
       sodipodi:type="inkscape:persp3d" />
  </defs>
  <sodipodi:namedview
     id="base"
     pagecolor="#ffffff"
     bordercolor="#666666"
     borderopacity="1.0"
     gridtolerance="10000"
     guidetolerance="10"
     objecttolerance="10"
     inkscape:pageopacity="0.0"
     inkscape:pageshadow="2"
     inkscape:zoom="0.31248868"
     inkscape:cx="585.88575"
     inkscape:cy="651.68537"
     inkscape:document-units="px"
     inkscape:current-layer="layer1"
     width="601px"
     height="601px"
     inkscape:window-width="1280"
     inkscape:window-height="1001"
     inkscape:window-x="-8"
     inkscape:window-y="-8"
     showgrid="false"
     fit-margin-top="0.2"
     fit-margin-left="0.2"
     fit-margin-right="0.2"
     fit-margin-bottom="0.2"
     inkscape:window-maximized="1"
     showguides="true"
     inkscape:guide-bbox="true" />
  <metadata
     id="metadata7">
    <rdf:RDF>
      <cc:Work
         rdf:about="">
        <dc:format>image/svg+xml</dc:format>
        <dc:type
           rdf:resource="http://purl.org/dc/dcmitype/StillImage" />
        <dc:title></dc:title>
      </cc:Work>
    </rdf:RDF>
  </metadata>
  <g
     inkscape:label="Layer 1"
     inkscape:groupmode="layer"
     id="layer1"
     transform="translate(1515.529,3241.075)">
    <rect
       style="color:#000000;fill:#000000;fill-opacity:1;fill-rule:nonzero;stroke:none;stroke-width:0.8735441;marker:none;visibility:visible;display:inline;overflow:visible"
       id="rect3653"
       width="0"
       height="27.202072"
       x="578.73834"
       y="298.1684"
       rx="249.48199"
       ry="27.202072" />
    <path
       inkscape:connector-curvature="0"
       id="path3940"
       d="m -1219.5067,-2230.8749 -295.8223,-295.8221 10e-5,-418.3556 295.822,-295.8224 418.3557,3e-4 295.8222,295.8221 -2e-4,418.3558 -295.822,295.822 z"
       style="fill:#000000;fill-opacity:1;stroke:none" />
    <path
       inkscape:connector-curvature="0"
       id="path3942"
       d="m -1217.4357,-2235.875 -292.8933,-292.8932 10e-5,-414.2135 292.8931,-292.8935 414.2135,3e-4 292.8933,292.8932 -2e-4,414.2136 -292.8931,292.8932 z"
       style="fill:#ffffff;fill-opacity:1;stroke:none" />
    <path
       style="fill:#d40000;fill-opacity:1;stroke:none"
       d="m -819.79066,-3195.875 269.46166,269.4616 -7e-5,381.0766 -269.46155,269.4619 -381.07638,-4e-4 -269.462,-269.4614 3e-4,-381.0767 269.4616,-269.4617 z"
       id="path3944"
       inkscape:connector-curvature="0" />
    <path
       inkscape:connector-curvature="0"
       d="m -1450.1471,-2685.2081 47.1679,-5.0953 c 5.7333,36.9763 22.9525,56.0955 52.286,56.0955 14.6477,0 26.1182,-3.8343 35.0478,-11.4762 8.2858,-7.642 12.1144,-17.2135 12.1144,-28.6907 0,-6.3562 -1.3334,-12.0953 -4.4762,-17.1906 -2.5524,-4.4761 -6.9906,-8.2857 -13.3906,-11.4762 -5.7333,-2.5467 -20.4058,-7.6666 -43.3336,-14.6667 -20.4058,-6.381 -35.7145,-13.381 -45.2631,-20.4049 -9.562,-7.6438 -17.2192,-17.2154 -22.9525,-28.6906 -5.7334,-12.0953 -8.2858,-24.8573 -8.2858,-38.8811 0,-15.9278 3.8286,-29.9525 10.8381,-42.6908 7.0287,-12.7619 17.2192,-22.9525 29.9526,-29.3334 12.762,-6.381 28.6916,-9.5468 47.168,-9.5468 28.6896,0 50.3564,7.642 66.3089,22.9287 15.9239,15.3107 24.2154,36.9764 25.5011,65.6669 l -49.0955,2.5468 c -1.9048,-15.9296 -6.381,-26.7621 -13.3906,-33.143 -6.9905,-6.3809 -17.2191,-9.5715 -30.5964,-9.5715 -12.7429,0 -22.9525,3.1906 -29.9525,8.2857 -6.9905,5.7372 -10.2096,12.7621 -10.2096,20.405 0,8.2855 3.2191,14.6666 9.562,20.4048 6.381,5.0953 21.0248,11.4763 43.9774,17.8324 24.2134,7.023 42.0707,14.6668 52.905,22.3097 10.8382,7.6667 19.1182,17.8573 24.8573,29.9764 5.7334,12.7371 8.2858,27.4048 8.2858,45.2383 0,25.5001 -7.6382,46.5479 -23.5716,63.7622 -15.3144,17.1905 -40.1678,26.1192 -73.3109,26.1192 -58.6422,0 -91.1434,-33.7859 -98.1663,-100.7148"
       style="fill:#ffffff;fill-opacity:1;fill-rule:nonzero;stroke:none"
       id="path3207" />
    <path
       inkscape:connector-curvature="0"
       d="m -1160.1207,-2589.5885 0,-243.5014 -71.3813,0 0,-49.0717 190.5953,0 0,49.0717 -70.7623,0 0,243.5014"
       style="fill:#ffffff;fill-opacity:1;fill-rule:nonzero;stroke:none"
       id="path3211" />
    <path
       style="fill:#ffffff;fill-opacity:1;fill-rule:nonzero;stroke:none"
       d="m -908.3205,-2887.2544 c -23.5716,0 -43.9732,5.0974 -60.5447,16.5737 -16.5715,10.8323 -29.9675,28.054 -40.1827,50.3636 -10.8382,22.3097 -15.9311,50.9763 -15.9311,86.0479 0,47.8098 11.4707,86.0402 34.4327,113.4452 20.4059,24.2382 47.8199,35.684 82.2258,36.3268 34.42875,0 61.82181,-12.7322 82.22576,-36.9695 22.95255,-27.4049 34.43258,-65.6588 34.43258,-114.7304 0,-48.4527 -10.85265,-85.4317 -32.53847,-112.1937 -21.66682,-26.143 -49.69112,-38.8636 -84.11987,-38.8636 z m 0,50.3637 c 19.76194,0 35.69775,8.2892 47.79304,24.2179 12.11439,16.5715 18.50166,41.4044 18.50166,75.1903 0,35.0479 -6.3732,60.5469 -19.11051,77.1184 -12.10716,16.5617 -28.05647,24.8845 -47.18419,24.8943 -19.1202,0 -34.4223,-8.3218 -47.1843,-24.8943 -12.7429,-17.1906 -19.1105,-42.071 -19.1105,-75.833 0,-34.4289 5.7397,-59.9044 18.5017,-75.8331 12.0953,-16.5715 28.0557,-24.8605 47.7931,-24.8605 z"
       id="path3215"
       inkscape:connector-curvature="0" />
    <path
       style="fill:#ffffff;fill-opacity:1;fill-rule:nonzero;stroke:none"
       d="m -754.08383,-2882.147 0,292.5424 48.46957,0 0,-110.2319 31.21941,0 c 3.80951,0 7.6658,-0.029 11.50008,-0.6765 l 0,0.034 c 23.5716,-0.6476 40.14914,-3.2025 51.00633,-8.3206 11.45154,-5.7143 21.64836,-15.945 29.9341,-29.968 7.64192,-14.6438 11.46632,-32.4853 11.46632,-53.5093 0,-22.9525 -4.45567,-42.0897 -13.36039,-56.7563 -9.57157,-15.3106 -21.05125,-24.8491 -35.71802,-29.3253 -7.64391,-2.5467 -21.66155,-3.7883 -43.32834,-3.7883 l -13.39423,0 -77.79483,0 z m 48.46957,49.0446 23.57518,0 c 7.00002,0 13.40617,0 19.14431,0.6426 9.54868,0.6473 16.56245,1.3181 20.39581,3.2133 6.35612,1.9047 11.45476,6.3603 15.93099,13.3604 3.80959,6.381 6.35892,14.6701 6.35892,24.2178 0,9.5715 -2.54933,17.8707 -6.35892,24.2518 -4.47623,6.3563 -9.57487,11.4563 -15.93099,14.003 -4.47623,1.2572 -10.84812,2.5695 -20.39581,3.2133 -5.09531,0 -10.22581,0.6088 -15.96483,0.6088 l -26.75466,0 0,-83.511 z"
       id="path3223"
       inkscape:connector-curvature="0" />
  </g>
</svg>
